<svg id="Layer_1" data-name="Layer 1" xmlns="http://www.w3.org/2000/svg" viewBox="0 0 1000.78 1303.87"><defs><style>.cls-1{fill:#9199be;stroke:#000;stroke-miterlimit:10;stroke-width:100px;}</style></defs><title>Artboard 1</title><path class="cls-1" d="M499.42,53.05c-248.66,0-450,201.6-450,450,0,166.68,56.23,218.77,354.54,697.09,44,70.59,146.94,70.51,190.91,0C893.34,721.57,949.42,669.7,949.42,503.05,949.42,254.39,747.82,53.05,499.42,53.05Z"/><path d="M786.55,378.6l-255-79-.31-.09a112.25,112.25,0,0,0-63.66,0L212.28,378.6a46.31,46.31,0,0,0,0,88.63l17.56,5.44a154,154,0,0,0-2,18.27,32,32,0,0,0-.2,55.84l-16.2,123.1a8,8,0,0,0,7.93,9h48a8,8,0,0,0,7.93-9l-16.2-123.1a32,32,0,0,0,.74-55.29c.19-3.24.45-6.3.83-9.24l50.67,15.7c-5.74,38.3-12,80.26-12,81.78,0,65.72,134.24,80.32,200,80.32s200-14.59,200-80.32c0-2-6.22-43.58-12-81.78l99.11-30.7a46.31,46.31,0,0,0,0-88.63ZM651,579C636.74,596.31,570.86,612,499.42,612,452.23,612,367,602.23,347.8,579l10-66.66,109.48,33.92.31.1a112.26,112.26,0,0,0,63.65,0l109.79-34L651,579ZM517.52,500.32a64.37,64.37,0,0,1-36.21,0l-253.9-77.41,253.89-77.4a64.32,64.32,0,0,1,36.22,0l253.89,77.4-253.89,77.4Z"/></svg>