<?xml version="1.0" encoding="utf-8"?>
<!-- Generator: Adobe Illustrator 21.1.0, SVG Export Plug-In . SVG Version: 6.00 Build 0)  -->
<svg version="1.1" id="Layer_1" xmlns="http://www.w3.org/2000/svg" xmlns:xlink="http://www.w3.org/1999/xlink" x="0px" y="0px"
	 viewBox="0 0 1000.8 1303.9" style="enable-background:new 0 0 1000.8 1303.9;" xml:space="preserve">
<style type="text/css">
	.st0{fill:#824CA7;stroke:#000000;stroke-width:100;stroke-miterlimit:10;}
</style>
<path class="st0" d="M499.4,53.1c-248.7,0-450,201.6-450,450c0,166.7,56.2,218.8,354.5,697.1c44,70.6,146.9,70.5,190.9,0
	c298.5-478.6,354.5-530.4,354.5-697.1C949.4,254.4,747.8,53.1,499.4,53.1z"/>
<path d="M-357.1,495.6l-255-79l-0.3-0.1c-20.8-6.1-42.9-6.1-63.7,0l-255.3,79.1c-19.4,5.8-32.9,24-32.9,44.3s13.5,38.5,32.9,44.3
	l17.6,5.4c-1,5.8-1.6,11.9-2,18.3c-9.8,5.5-16.5,15.9-16.5,28c0,12,6.6,22.4,16.3,27.9l-16.2,123.1c-0.6,4.8,3.1,9,7.9,9h48
	c4.8,0,8.6-4.3,7.9-9l-16.2-123.1c9.7-5.5,16.3-15.9,16.3-27.9c0-11.6-6.2-21.8-15.5-27.4c0.2-3.2,0.5-6.3,0.8-9.2l50.7,15.7
	c-5.7,38.3-12,80.3-12,81.8c0,65.7,134.2,80.3,200,80.3c65.8,0,200-14.6,200-80.3c0-2-6.2-43.6-12-81.8l99.1-30.7
	c19.4-5.8,32.9-24,32.9-44.3S-337.7,501.4-357.1,495.6z M-492.6,695.9c-14.3,17.3-80.2,33.1-151.6,33.1
	c-47.2,0-132.4-9.8-151.6-33.1l10-66.7l109.5,33.9l0.3,0.1c10.3,3.1,21.1,4.6,31.8,4.6c10.8,0,21.5-1.6,31.8-4.6l109.8-34
	L-492.6,695.9L-492.6,695.9z M-626.1,617.3c-11.8,3.5-24.4,3.5-36.2,0l-253.9-77.4l253.9-77.4c11.8-3.5,24.4-3.5,36.2,0l253.9,77.4
	L-626.1,617.3L-626.1,617.3z"/>
<path d="M-2012.9,1236.3c-74,0-130,30.2-172.4,92.5c-19.2,28.2-12.9,66.3,14.2,86.9l36.7,27.8c10.8,8.2,24.2,12.8,37.7,13
	c-11.8,19-17.8,40.6-17.8,64.6v11.4c0,16.4,6.2,31.3,16.4,42.6c-16.4,18.4-26.4,42.6-26.4,69.2c0,57.3,46.7,104,104,104
	s104-46.7,104-104c0-26.6-10-50.8-26.4-69.2c8.7-9.6,14.4-21.9,16-35.4c28.3-16.9,96-48.9,96-138.2
	C-1831,1307.4-1922,1236.3-2012.9,1236.3z M-2020.6,1700.3c-30.9,0-56-25.1-56-56c0-30.9,25.1-56,56-56c30.9,0,56,25.1,56,56
	C-1964.6,1675.1-1989.7,1700.3-2020.6,1700.3z M-1974.6,1524.1v8.4c0,8.8-7.1,15.8-15.8,15.8h-60.3c-8.7,0-15.8-7.1-15.8-15.8V1521
	c0-47.2,35.8-66,62.8-81.2c23.2-13,37.4-21.8,37.4-39c0-22.8-29-37.9-52.5-37.9c-30.6,0-44.7,14.5-64.6,39.6c-5.4,6.8-15.2,8-22,2.8
	l-36.7-27.8c-6.7-5.1-8.3-14.6-3.5-21.6c31.2-45.8,70.9-71.5,132.8-71.5c64.8,0,133.9,50.6,133.9,117.2
	C-1879,1490-1974.6,1491.4-1974.6,1524.1L-1974.6,1524.1z"/>
<path d="M-1531.7,1707.1c22.9-30,36.7-67.8,36.7-108.9c0-99.4-80.6-180-180-180c-99.4,0-180,80.6-180,180
	c0,41.1,13.8,78.9,36.7,108.9c-62.6,7.4-112.7,60.7-112.7,127.1v28.5c0,37.2,30.3,67.5,67.5,67.5h377c37.2,0,67.5-30.3,67.5-67.5
	v-28.5C-1419.1,1767.8-1469.1,1714.5-1531.7,1707.1z M-1675.1,1466.2c72.9,0,132,59.1,132,132s-59.1,132-132,132
	c-72.9,0-132-59.1-132-132S-1748,1466.2-1675.1,1466.2z M-1467.1,1862.7c0,10.8-8.7,19.5-19.5,19.5h-377c-10.8,0-19.5-8.7-19.5-19.5
	v-28.5c0-44.2,35.8-80,80-80h38.1c55.5,32,124,32.1,179.7,0h38.1c44.2,0,80,35.8,80,80V1862.7z"/>
<path d="M404.4,409.7v-32c0-4.4,3.6-8,8-8h208c4.4,0,8,3.6,8,8v32c0,4.4-3.6,8-8,8h-208C408,417.7,404.4,414.1,404.4,409.7z
	 M412.4,497.7h208c4.4,0,8-3.6,8-8v-32c0-4.4-3.6-8-8-8h-208c-4.4,0-8,3.6-8,8v32C404.4,494.1,408,497.7,412.4,497.7z M711.5,657.4
	c-4.2,13-4.2,51.6,0,64.6c7.3,1.4,12.9,7.9,12.9,15.7v16c0,8.8-7.2,16-16,16h-352c-44.2,0-80-35.8-80-80v-352c0-44.2,35.8-80,80-80
	h352c8.8,0,16,7.2,16,16v368C724.4,649.5,718.9,655.9,711.5,657.4z M670.4,657.7h-314c-17.6,0-32,14.4-32,32c0,17.7,14.3,32,32,32
	h314C667.7,704.4,667.7,675,670.4,657.7z M676.4,305.7h-320c-17.7,0-32,14.3-32,32v278.7c9.8-4.3,20.6-6.7,32-6.7h320V305.7z"/>
<path d="M-528.3,275.2c-23.8,0-41.6-3.5-57.5-7.5c-10.6-2.7-18.1-12.3-18.1-23.3v-31.7c-9.4-4.4-18.4-9.6-26.9-15.6l-26.7,15.4
	c-9.6,5.6-21.9,3.8-29.5-4.3c-35.4-37.6-44.2-58.6-57.2-98.5c-3.6-10.9,1.1-22.7,11-28.4l26.8-15c-0.9-10.3-0.9-20.7,0-31.1
	l-26.8-15.1c-10-5.6-14.6-17.5-11-28.4c13.1-40,21.9-60.9,57.2-98.5c7.6-8.1,19.8-9.9,29.5-4.3l26.7,15.4c8.5-6,17.5-11.2,26.9-15.6
	v-30.2c0-11.1,7.6-20.8,18.4-23.3c44.2-10.5,70-10.5,114.3,0c10.8,2.6,18.4,12.2,18.4,23.3v30.4c9.4,4.4,18.4,9.6,26.9,15.6
	l26.7-15.4c9.7-5.6,21.9-3.7,29.6,4.4c26.1,27.9,48.4,58.5,56.8,100.3c2,9.8-2.4,19.8-10.9,25.1l-26.6,16.5
	c0.9,10.3,0.9,20.7,0,31.1l26.6,16.5c8.4,5.2,12.9,15.2,10.9,24.9c-8.1,40.5-29.6,71.3-56.9,100.6c-7.6,8.1-19.8,9.9-29.5,4.3
	l-26.7-15.4c-8.5,6-17.5,11.2-26.9,15.6v31.7c0,11-7.4,20.6-18.1,23.3C-486.7,271.8-504.5,275.2-528.3,275.2L-528.3,275.2z
	 M-555.9,224.5c18.3,2.9,36.9,2.9,55.1,0v-44.8l16-5.7c15.2-5.4,29.1-13.4,41.3-23.9l12.9-11l38.8,22.4c11.7-14.4,21-30.5,27.6-47.7
	L-403,91.4l3.1-16.7c2.9-15.9,2.9-32,0-47.9l-3.1-16.7l38.8-22.4c-6.6-17.2-15.9-33.3-27.6-47.7l-38.8,22.4l-12.9-11
	c-12.3-10.5-26.2-18.6-41.3-23.9l-16-5.7v-44.7c-18.3-2.9-36.9-2.9-55.1,0v44.8l-16,5.7C-587.1-67-601-59-613.2-48.5l-12.9,11
	l-38.8-22.4c-11.7,14.4-21,30.5-27.6,47.7l38.8,22.4l-3.1,16.7c-2.9,15.9-2.9,32,0,47.9l3.1,16.7l-38.8,22.4
	c6.6,17.2,15.9,33.4,27.6,47.7l38.8-22.4l12.9,11c12.3,10.5,26.2,18.6,41.3,23.9l16,5.7V224.5L-555.9,224.5z M-528.8,139.4
	c-22.6,0-45.2-8.6-62.4-25.8c-34.4-34.4-34.4-90.4,0-124.8s90.4-34.4,124.8,0s34.4,90.4,0,124.8
	C-483.7,130.8-506.3,139.4-528.8,139.4z M-528.8,11c-10.3,0-20.6,3.9-28.5,11.8c-15.7,15.7-15.7,41.2,0,56.9
	c15.7,15.7,41.2,15.7,56.9,0s15.7-41.2,0-56.9C-508.2,14.9-518.5,11-528.8,11L-528.8,11z M-106.9-117.9c-1-5.8-6-10-11.9-10h-16.1
	c-3.5-9.9-8.8-19-15.5-26.8l8-13.9c2.9-5.1,1.8-11.6-2.7-15.3c-9.3-7.7-19.8-13.9-31.3-18.2c-5.5-2.1-11.8,0.1-14.7,5.3l-8,13.9
	c-10.2-1.9-20.7-1.9-30.9,0l-8-13.9c-3-5.1-9.2-7.3-14.7-5.3c-11.5,4.3-22.1,10.5-31.4,18.2c-4.5,3.7-5.7,10.2-2.7,15.3l8,13.9
	c-6.7,7.8-12,16.9-15.5,26.8h-16.1c-5.9,0-11,4.3-11.9,10.2c-2,12.2-1.9,24.5,0,36.2c1,5.8,6,10,11.9,10h16.1
	c3.5,9.9,8.8,19,15.5,26.8l-8,13.9c-2.9,5.1-1.8,11.6,2.7,15.3c9.3,7.7,19.9,13.9,31.4,18.2c5.5,2.1,11.8-0.1,14.7-5.3l8-13.9
	c10.2,1.9,20.7,1.9,30.9,0l8,13.9c3,5.1,9.2,7.3,14.7,5.3c11.5-4.3,22.1-10.5,31.4-18.2c4.5-3.7,5.7-10.2,2.7-15.3l-8-13.9
	c6.7-7.8,12-16.9,15.5-26.8h16.1c5.9,0,11-4.3,11.9-10.2C-104.9-93.9-104.9-106.1-106.9-117.9L-106.9-117.9z M-214.7-67.7
	c-17.7,0-32-14.3-32-32s14.3-32,32-32s32,14.3,32,32S-197-67.7-214.7-67.7z M-106.9,187.7c-1-5.8-6-10-11.9-10h-16.1
	c-3.5-9.9-8.8-19-15.5-26.8l8-13.9c2.9-5.1,1.8-11.6-2.7-15.3c-9.3-7.7-19.9-13.9-31.4-18.2c-5.5-2.1-11.8,0.1-14.7,5.3l-8,13.9
	c-10.2-1.9-20.7-1.9-30.9,0l-8-13.9c-3-5.1-9.2-7.3-14.7-5.3c-11.5,4.3-22.1,10.5-31.4,18.2c-4.5,3.7-5.7,10.2-2.7,15.3l8,13.9
	c-6.7,7.8-12,16.9-15.5,26.8h-16.1c-5.9,0-11,4.3-11.9,10.2c-2,12.2-1.9,24.5,0,36.2c1,5.8,6,10,11.9,10h16.1
	c3.5,9.9,8.8,19,15.5,26.8l-8,13.9c-2.9,5.1-1.8,11.6,2.7,15.3c9.3,7.7,19.9,13.9,31.4,18.2c5.5,2.1,11.8-0.1,14.7-5.3l8-13.9
	c10.2,1.9,20.7,1.9,30.9,0l8,13.9c3,5.1,9.2,7.3,14.7,5.3c11.5-4.3,22.1-10.5,31.4-18.2c4.5-3.7,5.7-10.2,2.7-15.3l-8-13.9
	c6.7-7.8,12-16.9,15.5-26.8h16.1c5.9,0,11-4.3,11.9-10.2C-104.9,211.8-104.9,199.5-106.9,187.7L-106.9,187.7z M-214.7,237.9
	c-17.7,0-32-14.3-32-32s14.3-32,32-32s32,14.3,32,32S-197,237.9-214.7,237.9z"/>
<path d="M-1284.3,411.9c-137,0-248,111-248,248s111,248,248,248s248-111,248-248S-1147.4,411.9-1284.3,411.9z M-1104.6,571.9h-84.1
	c-7.3-37.4-19.3-72.3-35.3-102.8C-1170.8,485.8-1128,524.2-1104.6,571.9z M-1088.3,699.9h-93.7c2.2-25.9,2.3-52.5,0-80h93.7
	C-1083,646.2-1083,673.5-1088.3,699.9z M-1338.4,699.9c-2.6-26.5-2.6-53.1,0-80h108.2c2.5,26.8,2.5,53.5,0,80H-1338.4L-1338.4,699.9
	z M-1237.8,747.9c-9.4,42.1-25.3,79.9-46.5,109.2c-21.2-29.3-37.1-67.2-46.5-109.2H-1237.8z M-1480.3,619.9h93.7
	c-2.2,25.7-2.4,52.3,0,80h-93.7C-1485.6,673.6-1485.7,646.2-1480.3,619.9z M-1330.9,571.9c9.3-42,25.2-79.7,46.6-109.3
	c21.4,29.6,37.3,67.3,46.6,109.3H-1330.9L-1330.9,571.9z M-1344.6,469.1c-16,30.5-28,65.4-35.3,102.8h-84.1
	C-1440.6,524.2-1397.9,485.8-1344.6,469.1z M-1464,747.9h84c7.3,37.5,19.2,72.3,35.3,102.8C-1398.3,833.7-1440.8,795.1-1464,747.9z
	 M-1224,850.6c16.1-30.4,28-65.3,35.3-102.8h84C-1127.8,795.2-1170.4,833.8-1224,850.6z"/>
</svg>
