<svg id="Layer_1" data-name="Layer 1" xmlns="http://www.w3.org/2000/svg" viewBox="0 0 1000.78 1303.87"><defs><style>.cls-1{fill:#54678f;stroke:#000;stroke-miterlimit:10;stroke-width:100px;}</style></defs><title>Artboard 1</title><path class="cls-1" d="M499.42,53.05c-248.66,0-450,201.6-450,450,0,166.68,56.23,218.77,354.54,697.09,44,70.59,146.94,70.51,190.91,0C893.34,721.57,949.42,669.7,949.42,503.05,949.42,254.39,747.82,53.05,499.42,53.05Z"/><path d="M500.39,242.48c-137,0-248,111-248,248s111,248,248,248,248-111,248-248S637.36,242.48,500.39,242.48Zm179.7,160H596c-7.33-37.41-19.31-72.32-35.34-102.8A200.91,200.91,0,0,1,680.09,402.48Zm16.32,128H602.69a470,470,0,0,0,0-80h93.73A202.76,202.76,0,0,1,696.41,530.48Zm-250.08,0a418.58,418.58,0,0,1,0-80H554.5a418.59,418.59,0,0,1,0,80H446.33Zm100.54,48c-9.35,42.05-25.3,79.91-46.48,109.24-21.18-29.33-37.13-67.19-46.48-109.24Zm-242.5-128h93.73a470,470,0,0,0,0,80H304.38A202.76,202.76,0,0,1,304.38,450.48Zm149.41-48c9.27-42,25.17-79.65,46.61-109.28,21.43,29.62,37.33,67.3,46.61,109.28H453.79Zm-13.63-102.8c-16,30.48-28,65.39-35.34,102.8H320.69A200.91,200.91,0,0,1,440.16,299.68ZM320.69,578.48h84C412,616,424,650.8,440,681.25A200.91,200.91,0,0,1,320.69,578.48Zm240,102.77C576.8,650.8,588.75,616,596,578.48h84A200.92,200.92,0,0,1,560.74,681.25Z"/></svg>