<svg id="Layer_1" data-name="Layer 1" xmlns="http://www.w3.org/2000/svg" viewBox="0 0 1000.78 1303.87"><defs><style>.cls-1{fill:#824ca7;stroke:#000;stroke-miterlimit:10;stroke-width:100px;}</style></defs><title>Artboard 1</title><path class="cls-1" d="M499.42,53.05c-248.66,0-450,201.6-450,450,0,166.68,56.23,218.77,354.54,697.09,44,70.59,146.94,70.51,190.91,0C893.34,721.57,949.42,669.7,949.42,503.05,949.42,254.39,747.82,53.05,499.42,53.05Z"/><path d="M404.39,409.75v-32a8,8,0,0,1,8-8h208a8,8,0,0,1,8,8v32a8,8,0,0,1-8,8h-208A8,8,0,0,1,404.39,409.75Zm8,88h208a8,8,0,0,0,8-8v-32a8,8,0,0,0-8-8h-208a8,8,0,0,0-8,8v32A8,8,0,0,0,412.39,497.75Zm299.1,159.7c-4.2,13-4.2,51.6,0,64.6a16,16,0,0,1,12.9,15.7v16a16,16,0,0,1-16,16h-352a80,80,0,0,1-80-80v-352a80,80,0,0,1,80-80h352a16,16,0,0,1,16,16v368A16,16,0,0,1,711.49,657.45Zm-41.1.3h-314a32,32,0,1,0,0,64h314C667.69,704.45,667.69,675,670.39,657.75Zm6-352h-320a32,32,0,0,0-32,32v278.7a79.37,79.37,0,0,1,32-6.7h320Z"/></svg>