<svg id="Layer_1" data-name="Layer 1" xmlns="http://www.w3.org/2000/svg" viewBox="0 0 1000.78 1303.87"><defs><style>.cls-1{fill:#6c6b74;stroke:#000;stroke-miterlimit:10;stroke-width:100px;}</style></defs><title>Artboard 1</title><path class="cls-1" d="M499.42,53.05c-248.66,0-450,201.6-450,450,0,166.68,56.23,218.77,354.54,697.09,44,70.59,146.94,70.51,190.91,0C893.34,721.57,949.42,669.7,949.42,503.05,949.42,254.39,747.82,53.05,499.42,53.05Z"/><path d="M396.52,719.9c-23.8,0-41.6-3.5-57.5-7.5a24.08,24.08,0,0,1-18.1-23.3V657.4A175.94,175.94,0,0,1,294,641.8l-26.7,15.4a24,24,0,0,1-29.5-4.3c-35.4-37.6-44.2-58.6-57.2-98.5a24.08,24.08,0,0,1,11-28.4l26.8-15a179.45,179.45,0,0,1,0-31.1l-26.8-15.1a23.92,23.92,0,0,1-11-28.4c13.1-40,21.9-60.9,57.2-98.5a24,24,0,0,1,29.5-4.3L294,349a175.94,175.94,0,0,1,26.9-15.6V303.2a23.87,23.87,0,0,1,18.4-23.3c44.2-10.5,70-10.5,114.3,0A24,24,0,0,1,472,303.2v30.4a175.94,175.94,0,0,1,26.9,15.6l26.7-15.4a24.16,24.16,0,0,1,29.6,4.4c26.1,27.9,48.4,58.5,56.8,100.3a24,24,0,0,1-10.9,25.1l-26.6,16.5a179.45,179.45,0,0,1,0,31.1l26.6,16.5A23.86,23.86,0,0,1,612,552.6c-8.1,40.5-29.6,71.3-56.9,100.6a24,24,0,0,1-29.5,4.3l-26.7-15.4A175.94,175.94,0,0,1,472,657.7v31.7a24,24,0,0,1-18.1,23.3c-15.8,3.8-33.6,7.2-57.4,7.2Zm-27.6-50.7a175.57,175.57,0,0,0,55.1,0V624.4l16-5.7a129.38,129.38,0,0,0,41.3-23.9l12.9-11L533,606.2a175.13,175.13,0,0,0,27.6-47.7l-38.8-22.4,3.1-16.7a133,133,0,0,0,0-47.9l-3.1-16.7,38.8-22.4A175.13,175.13,0,0,0,533,384.7l-38.8,22.4-12.9-11A129.68,129.68,0,0,0,440,372.2l-16-5.7V321.8a175.57,175.57,0,0,0-55.1,0v44.8l-16,5.7a129.38,129.38,0,0,0-41.3,23.9l-12.9,11-38.8-22.4a175.13,175.13,0,0,0-27.6,47.7l38.8,22.4L268,471.6a133,133,0,0,0,0,47.9l3.1,16.7-38.8,22.4a173.66,173.66,0,0,0,27.6,47.7l38.8-22.4,12.9,11a129.68,129.68,0,0,0,41.3,23.9l16,5.7v44.7ZM396,584.1a88.2,88.2,0,1,1,62.4-25.8A88,88,0,0,1,396,584.1Zm0-128.4a40.25,40.25,0,1,0,28.4,11.8A40.12,40.12,0,0,0,396,455.7Zm421.9-128.9a12,12,0,0,0-11.9-10h-16.1a84.32,84.32,0,0,0-15.5-26.8l8-13.9a12.1,12.1,0,0,0-2.7-15.3,108.78,108.78,0,0,0-31.3-18.2,12,12,0,0,0-14.7,5.3l-8,13.9a84.47,84.47,0,0,0-30.9,0l-8-13.9a12.22,12.22,0,0,0-14.7-5.3,109.31,109.31,0,0,0-31.4,18.2,12,12,0,0,0-2.7,15.3l8,13.9a84.32,84.32,0,0,0-15.5,26.8h-16.1a12,12,0,0,0-11.9,10.2,112.72,112.72,0,0,0,0,36.2,12,12,0,0,0,11.9,10h16.1A84.32,84.32,0,0,0,646,400l-8,13.9a12.1,12.1,0,0,0,2.7,15.3,109.31,109.31,0,0,0,31.4,18.2,12,12,0,0,0,14.7-5.3l8-13.9a84.47,84.47,0,0,0,30.9,0l8,13.9a12.22,12.22,0,0,0,14.7,5.3,109.31,109.31,0,0,0,31.4-18.2,12,12,0,0,0,2.7-15.3l-8-13.9A84.32,84.32,0,0,0,790,373.2h16.1A12,12,0,0,0,818,363a112.7,112.7,0,0,0-.1-36.2ZM710.12,377a32,32,0,1,1,32-32A32,32,0,0,1,710.12,377Zm107.8,255.4a12,12,0,0,0-11.9-10h-16.1a84.32,84.32,0,0,0-15.5-26.8l8-13.9a12.1,12.1,0,0,0-2.7-15.3,109.31,109.31,0,0,0-31.4-18.2,12,12,0,0,0-14.7,5.3l-8,13.9a84.47,84.47,0,0,0-30.9,0l-8-13.9a12.22,12.22,0,0,0-14.7-5.3,109.31,109.31,0,0,0-31.4,18.2,12,12,0,0,0-2.7,15.3l8,13.9a84.32,84.32,0,0,0-15.5,26.8h-16.1a12,12,0,0,0-11.9,10.2,112.72,112.72,0,0,0,0,36.2,12,12,0,0,0,11.9,10h16.1a84.32,84.32,0,0,0,15.5,26.8l-8,13.9a12.1,12.1,0,0,0,2.7,15.3A109.31,109.31,0,0,0,672,753a12,12,0,0,0,14.7-5.3l8-13.9a84.47,84.47,0,0,0,30.9,0l8,13.9a12.22,12.22,0,0,0,14.7,5.3,109.31,109.31,0,0,0,31.4-18.2,12,12,0,0,0,2.7-15.3l-8-13.9a84.32,84.32,0,0,0,15.5-26.8H806a12,12,0,0,0,11.9-10.2,110,110,0,0,0,0-36.2Zm-107.8,50.2a32,32,0,1,1,32-32A32,32,0,0,1,710.12,682.6Z"/></svg>